<svg xmlns="http://www.w3.org/2000/svg" xmlns:xlink="http://www.w3.org/1999/xlink" width="133" zoomAndPan="magnify" viewBox="0 0 99.75 66.75" height="89" preserveAspectRatio="xMidYMid meet" version="1.0"><defs><clipPath id="4998d25e83"><path d="M 64.339844 30 L 99 30 L 99 54.367188 L 64.339844 54.367188 Z M 64.339844 30 " clip-rule="nonzero"/></clipPath><clipPath id="546d34f975"><path d="M 64.339844 13.269531 L 99 13.269531 L 99 37 L 64.339844 37 Z M 64.339844 13.269531 " clip-rule="nonzero"/></clipPath><clipPath id="7cf14de184"><path d="M 38.597656 0 L 60.265625 0 L 60.265625 65.753906 L 38.597656 65.753906 Z M 38.597656 0 " clip-rule="nonzero"/></clipPath><clipPath id="0149da672c"><path d="M 0.0625 30 L 34.851562 30 L 34.851562 54.367188 L 0.0625 54.367188 Z M 0.0625 30 " clip-rule="nonzero"/></clipPath><clipPath id="172589d942"><path d="M 0.0625 13.269531 L 34.851562 13.269531 L 34.851562 37 L 0.0625 37 Z M 0.0625 13.269531 " clip-rule="nonzero"/></clipPath></defs><g clip-path="url(#4998d25e83)"><path fill="#ffffff" d="M 97.648438 38.863281 L 67.539062 53.917969 C 66.25 54.5625 64.527344 53.488281 64.527344 51.984375 L 64.527344 48.113281 C 64.527344 47.25 64.957031 46.605469 65.820312 46.175781 L 95.929688 31.121094 C 97.433594 30.476562 98.941406 31.550781 98.941406 33.058594 L 98.941406 36.929688 C 98.941406 37.789062 98.511719 38.433594 97.648438 38.863281 Z M 97.648438 38.863281 " fill-opacity="1" fill-rule="nonzero"/></g><g clip-path="url(#546d34f975)"><path fill="#ffffff" d="M 95.929688 36.714844 L 65.820312 21.65625 C 64.957031 21.226562 64.527344 20.582031 64.527344 19.722656 L 64.527344 15.851562 C 64.527344 14.34375 66.25 13.269531 67.539062 13.914062 L 97.648438 28.96875 C 98.296875 29.402344 98.941406 30.046875 98.941406 30.90625 L 98.941406 34.777344 C 98.941406 36.28125 97.21875 37.359375 95.929688 36.714844 Z M 95.929688 36.714844 " fill-opacity="1" fill-rule="nonzero"/></g><g clip-path="url(#7cf14de184)"><path fill="#38b6ff" d="M 50.898438 32.097656 L 55.984375 30.394531 L 38.597656 65.953125 L 47.691406 35.5625 L 40.996094 37.632812 L 60.535156 0.0351562 Z M 50.898438 32.097656 " fill-opacity="1" fill-rule="nonzero"/></g><g clip-path="url(#0149da672c)"><path fill="#ffffff" d="M 1.542969 38.863281 L 31.652344 53.917969 C 32.941406 54.5625 34.664062 53.488281 34.664062 51.984375 L 34.664062 48.113281 C 34.664062 47.25 34.234375 46.605469 33.371094 46.175781 L 3.261719 31.121094 C 1.757812 30.476562 0.25 31.550781 0.25 33.058594 L 0.25 36.929688 C 0.25 37.789062 0.679688 38.433594 1.542969 38.863281 Z M 1.542969 38.863281 " fill-opacity="1" fill-rule="nonzero"/></g><g clip-path="url(#172589d942)"><path fill="#ffffff" d="M 3.261719 36.714844 L 33.371094 21.65625 C 34.234375 21.226562 34.664062 20.582031 34.664062 19.722656 L 34.664062 15.851562 C 34.664062 14.34375 32.941406 13.269531 31.652344 13.914062 L 1.542969 28.96875 C 0.898438 29.402344 0.25 30.046875 0.25 30.90625 L 0.25 34.777344 C 0.25 36.28125 1.972656 37.359375 3.261719 36.714844 Z M 3.261719 36.714844 " fill-opacity="1" fill-rule="nonzero"/></g></svg>