<svg xmlns="http://www.w3.org/2000/svg" xmlns:xlink="http://www.w3.org/1999/xlink" width="252" zoomAndPan="magnify" viewBox="0 0 189 96.749999" height="129" preserveAspectRatio="xMidYMid meet" version="1.0"><defs><g/><clipPath id="b5770e5dc3"><path d="M 109.105469 30 L 144 30 L 144 54.429688 L 109.105469 54.429688 Z M 109.105469 30 " clip-rule="nonzero"/></clipPath><clipPath id="aad26d8747"><path d="M 109.105469 13.285156 L 144 13.285156 L 144 37 L 109.105469 37 Z M 109.105469 13.285156 " clip-rule="nonzero"/></clipPath><clipPath id="cc435546ec"><path d="M 83.335938 0 L 105.03125 0 L 105.03125 65.828125 L 83.335938 65.828125 Z M 83.335938 0 " clip-rule="nonzero"/></clipPath><clipPath id="e469093919"><path d="M 44.757812 30 L 79.585938 30 L 79.585938 54.429688 L 44.757812 54.429688 Z M 44.757812 30 " clip-rule="nonzero"/></clipPath><clipPath id="58301e3345"><path d="M 44.757812 13.285156 L 79.585938 13.285156 L 79.585938 37 L 44.757812 37 Z M 44.757812 13.285156 " clip-rule="nonzero"/></clipPath></defs><g clip-path="url(#b5770e5dc3)"><path fill="#ffffff" d="M 142.457031 38.910156 L 112.3125 53.980469 C 111.019531 54.628906 109.296875 53.550781 109.296875 52.042969 L 109.296875 48.167969 C 109.296875 47.304688 109.726562 46.660156 110.589844 46.230469 L 140.734375 31.15625 C 142.242188 30.511719 143.75 31.585938 143.75 33.09375 L 143.75 36.972656 C 143.75 37.832031 143.320312 38.476562 142.457031 38.910156 Z M 142.457031 38.910156 " fill-opacity="1" fill-rule="nonzero"/></g><g clip-path="url(#aad26d8747)"><path fill="#ffffff" d="M 140.734375 36.753906 L 110.589844 21.683594 C 109.726562 21.253906 109.296875 20.605469 109.296875 19.746094 L 109.296875 15.867188 C 109.296875 14.363281 111.019531 13.285156 112.3125 13.929688 L 142.457031 29.003906 C 143.101562 29.433594 143.75 30.082031 143.75 30.941406 L 143.75 34.816406 C 143.75 36.324219 142.027344 37.402344 140.734375 36.753906 Z M 140.734375 36.753906 " fill-opacity="1" fill-rule="nonzero"/></g><g clip-path="url(#cc435546ec)"><path fill="#38b6ff" d="M 95.648438 32.132812 L 100.746094 30.433594 L 83.335938 66.027344 L 92.441406 35.605469 L 85.738281 37.679688 L 105.296875 0.0351562 Z M 95.648438 32.132812 " fill-opacity="1" fill-rule="nonzero"/></g><g clip-path="url(#e469093919)"><path fill="#ffffff" d="M 46.238281 38.910156 L 76.382812 53.980469 C 77.675781 54.628906 79.398438 53.550781 79.398438 52.042969 L 79.398438 48.167969 C 79.398438 47.304688 78.96875 46.660156 78.105469 46.230469 L 47.960938 31.15625 C 46.453125 30.511719 44.945312 31.585938 44.945312 33.09375 L 44.945312 36.972656 C 44.945312 37.832031 45.375 38.476562 46.238281 38.910156 Z M 46.238281 38.910156 " fill-opacity="1" fill-rule="nonzero"/></g><g clip-path="url(#58301e3345)"><path fill="#ffffff" d="M 47.960938 36.753906 L 78.105469 21.683594 C 78.96875 21.253906 79.398438 20.605469 79.398438 19.746094 L 79.398438 15.867188 C 79.398438 14.363281 77.675781 13.285156 76.382812 13.929688 L 46.238281 29.003906 C 45.59375 29.433594 44.945312 30.082031 44.945312 30.941406 L 44.945312 34.816406 C 44.945312 36.324219 46.667969 37.402344 47.960938 36.753906 Z M 47.960938 36.753906 " fill-opacity="1" fill-rule="nonzero"/></g><g fill="#ffffff" fill-opacity="1"><g transform="translate(8.425378, 81.831399)"><g><path d="M 11.378906 -5.808594 C 11.378906 -4.671875 10.980469 -3.667969 10.191406 -2.851562 C 9.398438 -2.007812 8.421875 -1.582031 7.285156 -1.582031 C 6.152344 -1.582031 5.175781 -2.007812 4.382812 -2.851562 C 3.589844 -3.667969 3.195312 -4.644531 3.195312 -5.808594 C 3.195312 -6.941406 3.589844 -7.917969 4.382812 -8.765625 C 5.175781 -9.609375 6.152344 -10.03125 7.285156 -10.03125 C 8.421875 -10.03125 9.398438 -9.609375 10.191406 -8.765625 C 10.980469 -7.917969 11.378906 -6.917969 11.378906 -5.808594 Z M 3.140625 1.582031 L 1.242188 1.582031 C 1.453125 2.824219 2.007812 3.90625 2.957031 4.832031 C 4.117188 6.019531 5.542969 6.601562 7.207031 6.601562 C 8.84375 6.601562 10.269531 6.019531 11.457031 4.832031 C 12.617188 3.667969 13.226562 2.242188 13.226562 0.582031 L 13.226562 -11.617188 L 11.378906 -11.617188 L 11.378906 -9.664062 C 11.273438 -9.769531 11.167969 -9.898438 11.0625 -10.03125 C 9.898438 -11.246094 8.554688 -11.878906 7.023438 -11.878906 C 5.386719 -11.878906 4.039062 -11.246094 2.929688 -10.03125 C 1.875 -8.816406 1.347656 -7.417969 1.347656 -5.808594 C 1.347656 -4.171875 1.875 -2.773438 2.929688 -1.582031 C 4.039062 -0.34375 5.386719 0.265625 7.023438 0.265625 C 8.605469 0.265625 9.953125 -0.34375 11.0625 -1.582031 C 11.167969 -1.691406 11.273438 -1.820312 11.378906 -1.925781 L 11.378906 0.582031 C 11.378906 1.742188 10.957031 2.71875 10.136719 3.539062 C 9.320312 4.355469 8.34375 4.75 7.207031 4.75 C 6.046875 4.75 5.070312 4.355469 4.25 3.539062 C 3.667969 2.957031 3.300781 2.324219 3.140625 1.582031 Z M 3.140625 1.582031 "/></g></g></g><g fill="#ffffff" fill-opacity="1"><g transform="translate(23.627566, 81.831399)"><g><path d="M 11.484375 -5.859375 C 11.484375 -4.699219 11.0625 -3.722656 10.242188 -2.902344 C 9.398438 -2.058594 8.421875 -1.664062 7.261719 -1.664062 C 6.097656 -1.664062 5.09375 -2.058594 4.277344 -2.902344 C 3.433594 -3.722656 3.035156 -4.699219 3.035156 -5.859375 C 3.035156 -7.023438 3.433594 -8 4.277344 -8.84375 C 5.09375 -9.664062 6.097656 -10.085938 7.261719 -10.085938 C 8.421875 -10.085938 9.398438 -9.664062 10.242188 -8.84375 C 11.0625 -8 11.484375 -7.023438 11.484375 -5.859375 Z M 13.332031 -5.859375 C 13.332031 -7.523438 12.722656 -8.949219 11.535156 -10.136719 C 10.347656 -11.324219 8.921875 -11.933594 7.261719 -11.933594 C 5.570312 -11.933594 4.144531 -11.324219 2.957031 -10.136719 C 1.769531 -8.949219 1.1875 -7.523438 1.1875 -5.859375 C 1.1875 -4.171875 1.769531 -2.746094 2.957031 -1.582031 C 4.144531 -0.394531 5.597656 0.183594 7.261719 0.183594 C 8.898438 0.183594 10.347656 -0.394531 11.535156 -1.582031 C 12.722656 -2.746094 13.332031 -4.171875 13.332031 -5.859375 Z M 13.332031 -5.859375 "/></g></g></g><g fill="#ffffff" fill-opacity="1"><g transform="translate(38.143543, 81.831399)"><g><path d="M 3.828125 0 L 3.828125 -19.800781 L 1.980469 -19.800781 L 1.980469 0 Z M 3.828125 0 "/></g></g></g><g fill="#ffffff" fill-opacity="1"><g transform="translate(43.949931, 81.831399)"><g><path d="M 11.21875 -5.808594 C 11.21875 -4.671875 10.824219 -3.667969 10.03125 -2.851562 C 9.238281 -2.007812 8.261719 -1.582031 7.128906 -1.582031 C 5.964844 -1.582031 4.988281 -2.007812 4.199219 -2.851562 C 3.40625 -3.667969 3.035156 -4.671875 3.035156 -5.808594 C 3.035156 -6.917969 3.40625 -7.917969 4.199219 -8.765625 C 4.988281 -9.609375 5.964844 -10.03125 7.128906 -10.03125 C 8.261719 -10.03125 9.238281 -9.609375 10.03125 -8.765625 C 10.824219 -7.917969 11.21875 -6.917969 11.21875 -5.808594 Z M 13.066406 0 L 13.066406 -19.800781 L 11.21875 -19.800781 L 11.21875 -9.609375 C 11.113281 -9.769531 10.980469 -9.898438 10.875 -10.03125 C 9.769531 -11.246094 8.421875 -11.878906 6.835938 -11.878906 C 5.226562 -11.878906 3.878906 -11.246094 2.773438 -10.03125 C 1.714844 -8.816406 1.1875 -7.417969 1.1875 -5.808594 C 1.1875 -4.171875 1.714844 -2.773438 2.773438 -1.582031 C 3.878906 -0.34375 5.226562 0.265625 6.835938 0.265625 C 8.421875 0.265625 9.769531 -0.34375 10.875 -1.582031 C 10.980469 -1.691406 11.113281 -1.820312 11.21875 -1.980469 L 11.21875 0 Z M 13.066406 0 "/></g></g></g><g fill="#ffffff" fill-opacity="1"><g transform="translate(58.993765, 81.831399)"><g><path d="M 13.332031 -6.070312 C 13.332031 -7.65625 12.699219 -9.027344 11.484375 -10.214844 C 10.296875 -11.351562 8.871094 -11.933594 7.261719 -11.933594 C 5.570312 -11.933594 4.144531 -11.324219 2.957031 -10.136719 C 1.769531 -8.949219 1.1875 -7.523438 1.1875 -5.859375 C 1.1875 -4.171875 1.769531 -2.746094 2.957031 -1.582031 C 3.511719 -1.03125 4.144531 -0.605469 4.882812 -0.289062 C 5.625 0.0273438 6.496094 0.183594 7.523438 0.183594 C 8.554688 0.183594 9.554688 -0.132812 10.558594 -0.765625 C 11.5625 -1.398438 12.300781 -2.296875 12.804688 -3.40625 L 10.691406 -3.40625 C 10.269531 -2.851562 9.769531 -2.429688 9.160156 -2.113281 C 8.554688 -1.796875 7.917969 -1.664062 7.261719 -1.664062 C 6.257812 -1.664062 5.359375 -1.980469 4.566406 -2.640625 C 3.773438 -3.273438 3.273438 -4.09375 3.113281 -5.09375 L 13.332031 -5.09375 Z M 11.378906 -6.679688 L 3.140625 -6.679688 C 3.246094 -7.152344 3.433594 -7.601562 3.695312 -8.023438 C 4.539062 -9.398438 5.730469 -10.085938 7.261719 -10.085938 C 8.238281 -10.085938 9.109375 -9.769531 9.875 -9.132812 C 10.664062 -8.472656 11.140625 -7.65625 11.378906 -6.679688 Z M 11.378906 -6.679688 "/></g></g></g><g fill="#ffffff" fill-opacity="1"><g transform="translate(73.377778, 81.831399)"><g><path d="M 10.003906 0 L 11.851562 0 L 11.851562 -7.261719 C 11.851562 -8.605469 11.484375 -9.6875 10.796875 -10.507812 C 10.425781 -10.929688 10.003906 -11.246094 9.503906 -11.484375 C 8.976562 -11.722656 8.316406 -11.851562 7.496094 -11.851562 C 6.652344 -11.851562 5.941406 -11.617188 5.304688 -11.191406 C 4.699219 -10.796875 4.199219 -10.269531 3.828125 -9.609375 L 3.828125 -11.617188 L 1.980469 -11.617188 L 1.980469 0 L 3.828125 0 L 3.828125 -4.859375 C 3.828125 -6.335938 4.09375 -7.496094 4.644531 -8.367188 C 4.964844 -8.84375 5.359375 -9.238281 5.859375 -9.554688 C 6.335938 -9.847656 6.996094 -10.003906 7.789062 -10.003906 C 8.578125 -10.003906 9.132812 -9.714844 9.476562 -9.1875 C 9.820312 -8.660156 10.003906 -8 10.003906 -7.261719 Z M 10.003906 0 "/></g></g></g><g fill="#ffffff" fill-opacity="1"><g transform="translate(86.811651, 81.831399)"><g/></g></g><g fill="#ffffff" fill-opacity="1"><g transform="translate(93.937681, 81.831399)"><g><path d="M 3.644531 -1.636719 C 3.195312 -1.953125 2.851562 -2.480469 2.667969 -3.246094 L 0.710938 -3.246094 C 1.109375 -0.84375 2.640625 0.34375 5.332031 0.34375 C 5.964844 0.34375 6.546875 0.289062 7.101562 0.132812 C 7.65625 -0.0273438 8.132812 -0.238281 8.578125 -0.527344 C 9.476562 -1.136719 9.925781 -2.058594 9.925781 -3.300781 C 9.925781 -4.566406 9.34375 -5.464844 8.132812 -6.046875 C 7.628906 -6.28125 7.074219 -6.46875 6.46875 -6.601562 C 5.886719 -6.730469 5.332031 -6.890625 4.832031 -7.046875 C 4.304688 -7.207031 3.878906 -7.417969 3.539062 -7.65625 C 3.195312 -7.894531 3.007812 -8.261719 3.007812 -8.789062 C 3.007812 -9.320312 3.222656 -9.714844 3.644531 -9.953125 C 4.066406 -10.214844 4.566406 -10.347656 5.121094 -10.347656 C 5.703125 -10.347656 6.203125 -10.214844 6.601562 -10.003906 C 6.996094 -9.792969 7.3125 -9.371094 7.496094 -8.738281 L 9.476562 -8.738281 C 9.238281 -9.898438 8.738281 -10.71875 8 -11.167969 C 7.234375 -11.640625 6.308594 -11.878906 5.175781 -11.878906 C 4.066406 -11.878906 3.089844 -11.5625 2.269531 -10.980469 C 1.476562 -10.375 1.054688 -9.503906 1.054688 -8.34375 C 1.054688 -7.789062 1.214844 -7.285156 1.503906 -6.863281 C 1.820312 -6.414062 2.269531 -6.070312 2.851562 -5.808594 C 3.378906 -5.570312 3.933594 -5.386719 4.515625 -5.226562 C 5.09375 -5.09375 5.648438 -4.9375 6.175781 -4.777344 C 7.367188 -4.382812 7.972656 -3.800781 7.972656 -3.0625 C 7.972656 -1.796875 7.128906 -1.1875 5.4375 -1.1875 C 4.726562 -1.1875 4.117188 -1.320312 3.644531 -1.636719 Z M 3.644531 -1.636719 "/></g></g></g><g fill="#ffffff" fill-opacity="1"><g transform="translate(104.547538, 81.831399)"><g><path d="M 3.457031 6.601562 L 11.484375 -11.617188 L 9.425781 -11.617188 L 6.097656 -3.828125 L 2.375 -11.617188 L 0.265625 -11.617188 L 5.121094 -1.902344 L 1.214844 6.601562 Z M 3.457031 6.601562 "/></g></g></g><g fill="#ffffff" fill-opacity="1"><g transform="translate(115.764434, 81.831399)"><g><path d="M 3.644531 -1.636719 C 3.195312 -1.953125 2.851562 -2.480469 2.667969 -3.246094 L 0.710938 -3.246094 C 1.109375 -0.84375 2.640625 0.34375 5.332031 0.34375 C 5.964844 0.34375 6.546875 0.289062 7.101562 0.132812 C 7.65625 -0.0273438 8.132812 -0.238281 8.578125 -0.527344 C 9.476562 -1.136719 9.925781 -2.058594 9.925781 -3.300781 C 9.925781 -4.566406 9.34375 -5.464844 8.132812 -6.046875 C 7.628906 -6.28125 7.074219 -6.46875 6.46875 -6.601562 C 5.886719 -6.730469 5.332031 -6.890625 4.832031 -7.046875 C 4.304688 -7.207031 3.878906 -7.417969 3.539062 -7.65625 C 3.195312 -7.894531 3.007812 -8.261719 3.007812 -8.789062 C 3.007812 -9.320312 3.222656 -9.714844 3.644531 -9.953125 C 4.066406 -10.214844 4.566406 -10.347656 5.121094 -10.347656 C 5.703125 -10.347656 6.203125 -10.214844 6.601562 -10.003906 C 6.996094 -9.792969 7.3125 -9.371094 7.496094 -8.738281 L 9.476562 -8.738281 C 9.238281 -9.898438 8.738281 -10.71875 8 -11.167969 C 7.234375 -11.640625 6.308594 -11.878906 5.175781 -11.878906 C 4.066406 -11.878906 3.089844 -11.5625 2.269531 -10.980469 C 1.476562 -10.375 1.054688 -9.503906 1.054688 -8.34375 C 1.054688 -7.789062 1.214844 -7.285156 1.503906 -6.863281 C 1.820312 -6.414062 2.269531 -6.070312 2.851562 -5.808594 C 3.378906 -5.570312 3.933594 -5.386719 4.515625 -5.226562 C 5.09375 -5.09375 5.648438 -4.9375 6.175781 -4.777344 C 7.367188 -4.382812 7.972656 -3.800781 7.972656 -3.0625 C 7.972656 -1.796875 7.128906 -1.1875 5.4375 -1.1875 C 4.726562 -1.1875 4.117188 -1.320312 3.644531 -1.636719 Z M 3.644531 -1.636719 "/></g></g></g><g fill="#ffffff" fill-opacity="1"><g transform="translate(126.37429, 81.831399)"><g><path d="M 0.527344 -9.898438 L 3.433594 -9.898438 L 3.433594 0 L 5.28125 0 L 5.28125 -9.898438 L 8.15625 -9.898438 L 8.15625 -11.617188 L 5.28125 -11.617188 L 5.28125 -16.128906 L 3.433594 -16.128906 L 3.433594 -11.617188 L 0.527344 -11.617188 Z M 0.527344 -9.898438 "/></g></g></g><g fill="#ffffff" fill-opacity="1"><g transform="translate(135.057488, 81.831399)"><g><path d="M 13.332031 -6.070312 C 13.332031 -7.65625 12.699219 -9.027344 11.484375 -10.214844 C 10.296875 -11.351562 8.871094 -11.933594 7.261719 -11.933594 C 5.570312 -11.933594 4.144531 -11.324219 2.957031 -10.136719 C 1.769531 -8.949219 1.1875 -7.523438 1.1875 -5.859375 C 1.1875 -4.171875 1.769531 -2.746094 2.957031 -1.582031 C 3.511719 -1.03125 4.144531 -0.605469 4.882812 -0.289062 C 5.625 0.0273438 6.496094 0.183594 7.523438 0.183594 C 8.554688 0.183594 9.554688 -0.132812 10.558594 -0.765625 C 11.5625 -1.398438 12.300781 -2.296875 12.804688 -3.40625 L 10.691406 -3.40625 C 10.269531 -2.851562 9.769531 -2.429688 9.160156 -2.113281 C 8.554688 -1.796875 7.917969 -1.664062 7.261719 -1.664062 C 6.257812 -1.664062 5.359375 -1.980469 4.566406 -2.640625 C 3.773438 -3.273438 3.273438 -4.09375 3.113281 -5.09375 L 13.332031 -5.09375 Z M 11.378906 -6.679688 L 3.140625 -6.679688 C 3.246094 -7.152344 3.433594 -7.601562 3.695312 -8.023438 C 4.539062 -9.398438 5.730469 -10.085938 7.261719 -10.085938 C 8.238281 -10.085938 9.109375 -9.769531 9.875 -9.132812 C 10.664062 -8.472656 11.140625 -7.65625 11.378906 -6.679688 Z M 11.378906 -6.679688 "/></g></g></g><g fill="#ffffff" fill-opacity="1"><g transform="translate(149.441501, 81.831399)"><g><path d="M 16.710938 -0.0546875 L 18.558594 -0.0546875 L 18.558594 -7.3125 C 18.558594 -8.605469 18.214844 -9.6875 17.582031 -10.535156 C 17.265625 -10.957031 16.84375 -11.273438 16.367188 -11.535156 C 15.867188 -11.800781 15.207031 -11.933594 14.414062 -11.933594 C 13.59375 -11.933594 12.882812 -11.695312 12.277344 -11.273438 C 11.722656 -10.851562 11.273438 -10.347656 10.902344 -9.714844 C 10.769531 -10.003906 10.613281 -10.269531 10.425781 -10.535156 C 10.109375 -10.957031 9.6875 -11.273438 9.214844 -11.535156 C 8.710938 -11.800781 8.050781 -11.933594 7.261719 -11.933594 C 6.441406 -11.933594 5.730469 -11.695312 5.121094 -11.273438 C 4.59375 -10.875 4.171875 -10.402344 3.828125 -9.792969 L 3.828125 -11.667969 L 1.980469 -11.667969 L 1.980469 -0.0546875 L 3.828125 -0.0546875 L 3.828125 -5.992188 C 3.90625 -6.917969 4.144531 -7.734375 4.539062 -8.394531 C 4.804688 -8.871094 5.199219 -9.292969 5.675781 -9.609375 C 6.152344 -9.925781 6.652344 -10.085938 7.207031 -10.085938 C 7.734375 -10.085938 8.15625 -9.980469 8.421875 -9.820312 C 9.160156 -9.34375 9.554688 -8.5 9.554688 -7.3125 L 9.554688 -0.0546875 L 11.40625 -0.0546875 L 11.40625 -7.3125 C 11.40625 -7.445312 11.378906 -7.601562 11.378906 -7.734375 C 11.457031 -7.972656 11.5625 -8.183594 11.695312 -8.394531 C 11.957031 -8.871094 12.355469 -9.292969 12.828125 -9.609375 C 13.304688 -9.925781 13.808594 -10.085938 14.359375 -10.085938 C 14.890625 -10.085938 15.3125 -9.980469 15.574219 -9.820312 C 16.316406 -9.34375 16.710938 -8.5 16.710938 -7.3125 Z M 16.710938 -0.0546875 "/></g></g></g><g fill="#ffffff" fill-opacity="1"><g transform="translate(169.579121, 81.831399)"><g><path d="M 3.644531 -1.636719 C 3.195312 -1.953125 2.851562 -2.480469 2.667969 -3.246094 L 0.710938 -3.246094 C 1.109375 -0.84375 2.640625 0.34375 5.332031 0.34375 C 5.964844 0.34375 6.546875 0.289062 7.101562 0.132812 C 7.65625 -0.0273438 8.132812 -0.238281 8.578125 -0.527344 C 9.476562 -1.136719 9.925781 -2.058594 9.925781 -3.300781 C 9.925781 -4.566406 9.34375 -5.464844 8.132812 -6.046875 C 7.628906 -6.28125 7.074219 -6.46875 6.46875 -6.601562 C 5.886719 -6.730469 5.332031 -6.890625 4.832031 -7.046875 C 4.304688 -7.207031 3.878906 -7.417969 3.539062 -7.65625 C 3.195312 -7.894531 3.007812 -8.261719 3.007812 -8.789062 C 3.007812 -9.320312 3.222656 -9.714844 3.644531 -9.953125 C 4.066406 -10.214844 4.566406 -10.347656 5.121094 -10.347656 C 5.703125 -10.347656 6.203125 -10.214844 6.601562 -10.003906 C 6.996094 -9.792969 7.3125 -9.371094 7.496094 -8.738281 L 9.476562 -8.738281 C 9.238281 -9.898438 8.738281 -10.71875 8 -11.167969 C 7.234375 -11.640625 6.308594 -11.878906 5.175781 -11.878906 C 4.066406 -11.878906 3.089844 -11.5625 2.269531 -10.980469 C 1.476562 -10.375 1.054688 -9.503906 1.054688 -8.34375 C 1.054688 -7.789062 1.214844 -7.285156 1.503906 -6.863281 C 1.820312 -6.414062 2.269531 -6.070312 2.851562 -5.808594 C 3.378906 -5.570312 3.933594 -5.386719 4.515625 -5.226562 C 5.09375 -5.09375 5.648438 -4.9375 6.175781 -4.777344 C 7.367188 -4.382812 7.972656 -3.800781 7.972656 -3.0625 C 7.972656 -1.796875 7.128906 -1.1875 5.4375 -1.1875 C 4.726562 -1.1875 4.117188 -1.320312 3.644531 -1.636719 Z M 3.644531 -1.636719 "/></g></g></g></svg>